<svg width="1054" height="239" viewBox="0 0 1054 239" fill="none" xmlns="http://www.w3.org/2000/svg">
<path fill-rule="evenodd" clip-rule="evenodd" d="M505.501 171.224C496.084 180.64 484.438 185.348 470.562 185.348C456.685 185.348 445.039 180.64 435.622 171.224C426.206 161.808 421.498 150.162 421.498 136.285C421.498 122.532 426.206 110.948 435.622 101.532C445.163 91.9917 456.809 87.2217 470.562 87.2217C484.314 87.2217 495.96 91.9917 505.501 101.532C515.041 111.072 519.811 122.656 519.811 136.285C519.811 150.038 515.041 161.684 505.501 171.224ZM452.534 154.684C457.366 159.516 463.375 161.932 470.562 161.932C477.748 161.932 483.757 159.516 488.589 154.684C493.421 149.852 495.837 143.719 495.837 136.285C495.837 128.851 493.421 122.718 488.589 117.886C483.757 113.054 477.748 110.638 470.562 110.638C463.375 110.638 457.366 113.054 452.534 117.886C447.826 122.842 445.472 128.975 445.472 136.285C445.472 143.595 447.826 149.728 452.534 154.684ZM556.794 116.214C556.794 120.178 562.431 123.586 573.706 126.435C577.671 127.302 581.264 128.325 584.485 129.502C587.706 130.679 590.959 132.351 594.242 134.519C597.525 136.688 600.096 139.568 601.955 143.161C603.813 146.754 604.742 150.905 604.742 155.613C604.742 165.153 601.149 172.525 593.963 177.729C586.777 182.808 577.919 185.348 567.387 185.348C548.307 185.348 535.298 177.976 528.36 163.233L549.174 151.524C552.024 159.578 558.095 163.604 567.387 163.604C575.936 163.604 580.211 160.941 580.211 155.613C580.211 151.648 574.573 148.241 563.299 145.391C559.086 144.276 555.493 143.161 552.52 142.046C549.546 140.931 546.325 139.29 542.856 137.121C539.386 134.953 536.754 132.165 534.957 128.758C533.161 125.351 532.262 121.355 532.262 116.771C532.262 107.603 535.608 100.417 542.298 95.2127C549.112 89.8847 557.537 87.2217 567.573 87.2217C575.131 87.2217 582.007 88.9247 588.202 92.3317C594.397 95.7397 599.291 100.603 602.884 106.921L582.441 118.072C579.467 111.753 574.511 108.594 567.573 108.594C564.476 108.594 561.905 109.306 559.861 110.731C557.816 112.156 556.794 113.983 556.794 116.214ZM670.532 89.8237V112.868H649.531V151.524C649.531 154.746 650.337 157.1 651.947 158.587C653.558 160.073 655.912 160.91 659.009 161.095C662.107 161.281 665.948 161.25 670.532 161.003V182.747C654.301 184.605 642.748 183.087 635.872 178.193C628.995 173.299 625.557 164.41 625.557 151.524V112.868H609.388V89.8237H625.557V71.0527L649.531 63.8047V89.8237H670.532ZM712.905 89.8237V105.806C715.011 99.9827 718.604 95.5537 723.684 92.5177C728.764 89.4827 734.587 87.9647 741.153 87.9647V114.727C733.843 113.736 727.277 115.222 721.454 119.187C715.754 123.028 712.905 129.409 712.905 138.329V182.747H688.931V89.8237H712.905ZM822.182 100.788V89.8237H846.156V182.747H822.182V171.782C814.996 180.826 804.898 185.348 791.889 185.348C779.499 185.348 768.844 180.64 759.924 171.224C751.127 161.684 746.729 150.038 746.729 136.285C746.729 122.656 751.127 111.072 759.924 101.532C768.844 91.9917 779.499 87.2217 791.889 87.2217C804.898 87.2217 814.996 91.7437 822.182 100.788ZM777.951 155.241C782.783 160.073 788.916 162.489 796.35 162.489C803.783 162.489 809.916 160.073 814.748 155.241C819.704 150.285 822.182 143.967 822.182 136.285C822.182 128.603 819.704 122.347 814.748 117.515C809.916 112.559 803.783 110.081 796.35 110.081C788.916 110.081 782.783 112.559 777.951 117.515C773.119 122.347 770.703 128.603 770.703 136.285C770.703 143.967 773.119 150.285 777.951 155.241ZM915.105 135.727L953.575 182.747H925.698L891.874 140.559V182.747H867.9V52.6537H891.874V130.71L923.84 89.8237H952.46L915.105 135.727ZM1029.4 100.788V89.8237H1053.37V182.747H1029.4V171.782C1022.21 180.826 1012.12 185.348 999.107 185.348C986.718 185.348 976.063 180.64 967.142 171.224C958.345 161.684 953.947 150.038 953.947 136.285C953.947 122.656 958.345 111.072 967.142 101.532C976.063 91.9917 986.718 87.2217 999.107 87.2217C1012.12 87.2217 1022.21 91.7437 1029.4 100.788ZM985.169 155.241C990.001 160.073 996.134 162.489 1003.57 162.489C1011 162.489 1017.14 160.073 1021.97 155.241C1026.92 150.285 1029.4 143.967 1029.4 136.285C1029.4 128.603 1026.92 122.347 1021.97 117.515C1017.14 112.559 1011 110.081 1003.57 110.081C996.134 110.081 990.001 112.559 985.169 117.515C980.337 122.347 977.921 128.603 977.921 136.285C977.921 143.967 980.337 150.285 985.169 155.241Z" fill="#2633DE"/>
<path fill-rule="evenodd" clip-rule="evenodd" d="M51.8515 107.381C52.5825 105.92 54.0185 104.942 55.6465 104.798C69.4535 103.58 133.52 97.9267 143.24 97.0697C143.95 97.0067 144.613 97.4307 144.854 98.1017C144.907 98.2547 144.964 98.4067 145.023 98.5577C145.281 99.2217 145.06 99.9747 144.484 100.394C133.393 108.462 33.6605 180.994 9.6095 198.486C9.0245 198.912 8.2245 198.882 7.6725 198.415C7.1215 197.947 6.9605 197.163 7.2835 196.517C16.5905 177.903 45.6415 119.802 51.8515 107.381ZM250.971 19.8357C251.542 20.0067 251.968 20.4877 252.068 21.0747C252.168 21.6627 251.926 22.2557 251.444 22.6067C239.273 31.4577 187.515 69.0997 179.647 74.8227C179.07 75.2427 178.281 75.2197 177.729 74.7677C170.106 68.5507 158.892 68.4147 151.081 74.9687C147.143 78.2737 144.729 82.7257 143.919 87.4287C143.802 88.1327 143.223 88.6687 142.512 88.7317C134.167 89.4707 85.8845 93.7307 69.9485 95.1367C69.2615 95.1977 68.6155 94.8027 68.3565 94.1637C68.0975 93.5257 68.2865 92.7927 68.8215 92.3577C87.6725 77.0407 167.708 12.0117 181.195 1.05369C182.404 0.0706891 184.021 -0.249314 185.514 0.198686C196.137 3.38569 239.132 16.2837 250.971 19.8357ZM322.5 75.9047C323.006 76.3467 323.297 76.9847 323.303 77.6557C323.308 78.3277 323.026 78.9697 322.527 79.4207C310.283 90.4877 244.617 149.837 236.051 157.578C235.522 158.057 234.735 158.118 234.138 157.726C225.66 152.194 214.169 153.504 207.185 161.261C203.168 165.722 201.428 171.442 201.888 176.992C201.952 177.703 201.527 178.367 200.855 178.606C187.025 183.537 54.5585 230.735 36.2535 237.257C34.9285 237.729 33.4605 237.583 32.2535 236.859C26.1395 233.19 7.0505 221.737 0.761498 217.964C0.310498 217.693 0.024504 217.214 0.00150396 216.688C-0.021496 216.162 0.220501 215.66 0.645501 215.35C17.3025 203.237 137.187 116.048 149.406 107.161C149.983 106.741 150.772 106.764 151.324 107.216C158.947 113.433 170.16 113.569 177.971 107.015C185.005 101.113 187.175 91.5517 184.035 83.4367C183.771 82.7727 183.991 82.0147 184.569 81.5947C192.968 75.4797 251.688 32.7747 261.921 25.3317C262.81 24.6857 264.026 24.7407 264.853 25.4637C272.916 32.5187 313.058 67.6427 322.5 75.9047ZM353.245 195.294C352.965 195.994 352.227 196.395 351.487 196.25C340.097 194.016 255.998 177.52 244.858 175.335C244.158 175.198 243.639 174.605 243.595 173.893C243.411 171.052 242.65 168.247 241.323 165.67C240.995 165.038 241.135 164.264 241.664 163.787C250.291 155.986 316.939 95.7497 327.927 85.8187C328.291 85.4897 328.786 85.3507 329.268 85.4407C329.75 85.5317 330.161 85.8427 330.38 86.2807C335.575 96.6697 361.112 147.744 366.363 158.246C366.964 159.448 367.022 160.85 366.523 162.097C363.883 168.699 355.368 189.987 353.245 195.294ZM68.3805 237.925C67.6175 237.925 66.9655 237.375 66.8355 236.623C66.7055 235.872 67.1355 235.135 67.8545 234.879C97.0985 224.46 192.047 190.63 203.658 186.493C204.332 186.253 205.082 186.5 205.483 187.093C206.395 188.427 207.48 189.673 208.733 190.801C217.312 198.526 230.548 197.832 238.273 189.253C239.615 187.763 240.703 186.131 241.539 184.413C241.846 183.768 242.553 183.413 243.254 183.55C253.531 185.562 325.889 199.755 342.138 202.943C342.732 203.059 343.207 203.507 343.357 204.093C343.507 204.679 343.306 205.299 342.841 205.687C334.988 212.231 311.217 232.04 305.371 236.912C304.525 237.617 303.459 238.003 302.358 238.002C283.309 237.996 110.206 237.939 68.3805 237.925Z" fill="url(#paint0_linear_11_15)"/>
<defs>
<linearGradient id="paint0_linear_11_15" x1="9.16003e-06" y1="238.002" x2="366.86" y2="-0.000302905" gradientUnits="userSpaceOnUse">
<stop stop-color="#2633DE"/>
<stop offset="0.52" stop-color="#5BBCF6"/>
<stop offset="1" stop-color="#6EEEFF"/>
</linearGradient>
</defs>
</svg>
