<svg width="56" height="91" viewBox="0 0 56 91" fill="none" xmlns="http://www.w3.org/2000/svg"><path d="M44.147 50.403c-3.54 0-6.715 1.57-8.888 4.041l-5.57-3.946c.59-1.63.93-3.379.93-5.21 0-1.8-.327-3.52-.9-5.125l5.558-3.905c2.174 2.46 5.34 4.021 8.87 4.021C50.682 40.279 56 34.958 56 28.416c0-6.541-5.318-11.863-11.853-11.863s-11.852 5.322-11.852 11.863c0 1.171.176 2.3.493 3.37l-5.56 3.906a15.298 15.298 0 00-9.48-5.513V23.47c5.37-1.129 9.414-5.903 9.414-11.608C27.162 5.32 21.845 0 15.31 0 8.774 0 3.457 5.321 3.457 11.863c0 5.628 3.94 10.344 9.202 11.553v6.795C5.48 31.473 0 37.745 0 45.288c0 7.58 5.533 13.875 12.765 15.093v7.176c-5.315 1.17-9.308 5.913-9.308 11.58C3.457 85.68 8.774 91 15.31 91c6.535 0 11.852-5.321 11.852-11.863 0-5.667-3.992-10.41-9.308-11.58V60.38a15.301 15.301 0 009.319-5.424l5.607 3.972a11.814 11.814 0 00-.486 3.337c0 6.541 5.318 11.862 11.853 11.862S56 68.808 56 62.266s-5.318-11.863-11.853-11.863zm0-27.738c3.17 0 5.747 2.58 5.747 5.751a5.756 5.756 0 01-5.747 5.752 5.756 5.756 0 01-5.746-5.752 5.756 5.756 0 015.746-5.752zM9.563 11.863A5.756 5.756 0 0115.31 6.11a5.756 5.756 0 015.746 5.752 5.756 5.756 0 01-5.746 5.751 5.756 5.756 0 01-5.747-5.751zm11.493 67.274a5.756 5.756 0 01-5.746 5.752 5.756 5.756 0 01-5.747-5.752 5.756 5.756 0 015.747-5.751 5.756 5.756 0 015.746 5.751zM15.31 53.31c-4.42 0-8.015-3.598-8.015-8.021 0-4.424 3.595-8.022 8.015-8.022s8.015 3.598 8.015 8.022c0 4.423-3.595 8.021-8.015 8.021zm28.838 14.708a5.756 5.756 0 01-5.746-5.751 5.756 5.756 0 015.746-5.752c3.17 0 5.747 2.58 5.747 5.752a5.756 5.756 0 01-5.747 5.751z" fill="#fff"/></svg>